<?xml version="1.0" encoding="utf-8"?>
<!-- Generator: Adobe Illustrator 25.2.3, SVG Export Plug-In . SVG Version: 6.00 Build 0)  -->
<svg version="1.1" id="Layer_1" xmlns="http://www.w3.org/2000/svg" xmlns:xlink="http://www.w3.org/1999/xlink" x="0px" y="0px"
	 viewBox="0 0 1000 1000" style="enable-background:new 0 0 1000 1000;" xml:space="preserve">
<g>
	<path d="M242.4,299.3l-12.5-7.7c-5.2-3.2-9.8-5.9-14-8.1c-3.5-1.4-5.9-1.6-7.1-0.6c-1.2,1-0.9,2.9,0.9,5.6
		c6.7,7.7,10.9,16.3,12.7,26.1c0.6,5.9-0.7,11.3-4,16.4c-3.6,5.6-8.4,9.9-14.3,12.9c-9.5,4.7-19.5,7-30.2,6.7
		c-22.1-1.1-40.9-9.6-56.4-25.4c-13.4-13.4-20.7-29.5-21.8-48.2c1.3-23.1,12.4-40.8,33.5-52.9c2.2-1,6.5-2.9,12.7-5.7
		c6.2-2.8,12.6-5.2,19-7.1c6.4-1.9,10.7-2.2,12.7-1c-2.8,1.8-5.4,3.4-7.8,4.6c-5.2,3.1-11,6.5-17.5,10.4c-6.5,3.8-10.8,6.5-12.9,7.9
		c-15.4,10.9-23,25.4-22.7,43.6c1.9,14.5,8.9,26.7,21,36.5c12.1,9.8,25.6,15,40.5,15.6c2.4-0.1,5.7-0.5,9.8-1.3
		c4.1-0.8,7.9-2.1,11.3-3.9c3.4-1.8,5.2-4.2,5.5-7.2c-0.2-2.9-1-5.7-2.6-8.6c-1.5-2.9-3.2-5.5-4.9-7.7c-7.2-13.1-7.3-22.7-0.3-29
		c7-6.2,15.5-6.1,25.3,0.3l15.1,9.3l15.1,9.3L242.4,299.3z"/>
	<path d="M242,299.1c0.1-0.7,0.5-1.7,1.2-2.8l4.8-6.5l0.4,0.3c3.3,1.7,7.3,2.1,11.9,1.2c4.6-0.9,7.8-2.7,9.6-5.6
		c2.2-3.4,3.7-6.1,4.7-8.3c1-2.1,2.1-4.2,3.4-6.2l1.9-2.9c1.8-2.8,4.2-4.1,7.2-3.8c2,1.2,3.3,3,3.8,5.3c1.9,8.2,0.8,15.6-3.4,22
		c-1.8,2.8-4.3,5.4-7.4,7.8c0.9,0.5,1.8,1.3,3,2.4c1.1,1.1,2.4,2.1,3.8,2.9c5.2,3.2,10.2,2,15-3.7l2.8-2.4
		c7.5-7.9,13.3-11.4,17.5-10.4c2.6,1.6,3.6,4.5,3.1,8.7c-0.5,4.2-1.5,7.9-3,11.1c-1.5,3.2-2.7,5.7-3.8,7.3l-3.1,3.9l3.2,2.5
		c9.5,5.8,18.2,3.8,26.2-6.2l9.7-16.9c2.3-3.6,4.7-4.8,7-3.3c2.6,1.6,4.3,6.8,5.1,15.5c0.4,6.9-1.3,13.2-4.9,18.8
		c-5.1,7.9-12.5,12.9-22.3,15.1c-8.2,1.6-16.2,0-24-4.8c-5.7-3.5-10.2-8.1-13.5-13.6l-1.4,0.3c-6.9,0.1-12.7-1.4-17.6-4.4
		c-7.5-4.6-12.1-11-14-19.3c-4.2,0.9-8.3,1.2-12.2,0.7c-3.9-0.5-8.6-2-14.2-4.6L242,299.1z M329.3,265.9c3-1.3,5.3-3,6.7-5.3
		c2.2-3.4,2.6-6.7,1.4-10c-1.3-3.3-3.2-5.8-5.8-7.4c-3.2-2-6.4-2.4-9.7-1.3c-3.3,1.1-5.7,2.8-7.1,5c-2.5,3.9-3.1,7.5-1.8,10.7
		c1.3,3.2,3.2,5.5,5.5,6.9l1.3,0.8C323.1,266.9,326.2,267.1,329.3,265.9z M349.9,280c3.1-1,5.4-2.8,7.1-5.4c2.2-3.4,2.6-6.7,1.4-10
		c-1.3-3.3-3.2-5.8-5.8-7.4c-3.4-2.1-6.9-2.6-10.3-1.3c-3.4,1.2-5.9,3.1-7.5,5.6c-2.2,3.4-2.6,6.7-1.4,10c1.3,3.3,3.2,5.8,5.8,7.4
		l1.3,0.8C343.6,281,346.8,281.1,349.9,280z M353.5,252.5c3-1.3,5.3-3,6.7-5.3c2.2-3.4,2.6-6.7,1.4-10c-1.3-3.3-3.2-5.8-5.8-7.4
		c-3.4-2.1-6.9-2.6-10.3-1.3c-3.4,1.2-5.9,3.1-7.5,5.6c-2,3.1-2.4,6.3-1.3,9.5c1.1,3.2,2.8,5.6,5.1,7l2.2,1.3
		C347.3,253.6,350.4,253.8,353.5,252.5z"/>
	<path d="M312.5,406.1c1.5-1.1,5.2-1.5,11.1-1.4c23.3,1.8,44.2-4.1,62.6-17.8c-24.4-15-30.7-31.7-18.9-49.9c2-3.1,4.7-6.1,8.2-9
		c8.9-7,19.3-9.7,31-7.9c3.9,0.8,7.2,2.1,10.1,3.9c4.6,2.8,8.2,6.8,10.9,12c4.2,9.7,4.8,17.9,1.8,24.7c-3,6.8-5.6,12-8,15.7
		c-3.1,4.8-6.8,9.3-11.2,13.7l6.5,4l-6,9.3l-9-5.6c-9.8,7.7-23.4,13.3-40.9,16.8c-17.5,3.5-32.3,1.6-44.3-5.9L312.5,406.1z
		 M401.4,369.8c2.3-3.6,4.4-7.7,6-12.2c1.9-6.7,1.7-10.7-0.6-12.1l-3.4-2.1c-3.7-2.3-7.7-2.6-12-0.9c-2.7,1.1-4.8,2.7-6.2,5
		c-4.9,7.6-1.8,18,9.4,31.1C397.2,375.8,399.4,372.9,401.4,369.8z"/>
	<path d="M428.7,438.5c-2-9.9-0.5-20.1,4.7-30.6c-7.8,1.5-14.8,0.3-21.1-3.6l-2.2-1.3c0.3-1.8,1-3.5,2.1-5.2c1.3-2,2.5-3.3,3.8-4.1
		l0.9,0.5c7.3,1.8,14.7,2,22.1,0.7c7.4-1.3,16.1-3.4,26-6.3l7-1.6c6.2-0.9,10.9-0.4,14,1.6c1.4,0.9,2.6,2.2,3.5,3.9
		c2.9,4.9,3.8,11.2,2.9,18.8c-0.5,12.6-2.4,21.6-5.6,26.9c-3.2,5.3-4.9,8.1-5.1,8.3c-6.1,9.5-16.6,13.3-31.3,11.3
		c-4.2-1-7.8-2.5-11-4.4C433.8,449.9,430.2,444.9,428.7,438.5z M458.9,436.5c2.5-0.8,4.7-2.4,6.6-4.7c1.9-3.5,3.6-8.1,5.2-13.6
		c1.5-5.5,2.5-10.3,2.7-14.5c-5.1,0.4-10.1,1-15,1.9c-5,0.9-9.6,1.5-13.9,2l-0.6,3.7c-0.2,4.6,0,9.3,0.6,13.9
		c0.6,4.7,2.7,8.2,6.5,10.5C453.7,437,456.4,437.3,458.9,436.5z"/>
	<path d="M514.2,437.4c4.4-10,9.4-20.1,14.7-30.3c5.4-10.2,9.1-17.2,11.2-21.1c1.8-2.8,4.6-6.9,8.4-12.2c3.8-5.3,8-10.2,12.5-14.7
		c4.5-4.5,8.4-6.5,11.7-6c2.3,1.4,2.4,5.6,0.3,12.6c-2.9,12-7.6,23-14.1,33.1c-3.6,5.6-11.6,16.4-23.9,32.3
		c-13.4,17.6-22.3,26.5-26.7,26.5C507.8,454.2,509.8,447.4,514.2,437.4z"/>
	<path d="M461.9,503.7l2.5-0.2c15.7-1.3,28.8-3.6,39.3-6.9c13.8-4,27.2-13,40.2-27c17.9-18.4,29.3-27.1,34.2-26
		c1.7,1.1,0.9,6.1-2.4,15c-2.3,6-5.1,11.6-8.3,16.6l-4.8,6.5c1,2.2,2.6,4,4.9,5.4l-6,9.3c-2.9-1.8-5.2-3.8-6.9-6
		c-0.7,1.1-1.7,2.1-3,2.8c-6.6,5.3-16.6,9.8-29.9,13.3c-13.3,3.5-24.9,5.3-34.7,5.3c-9.8,0-16.6-1.1-20.3-3.4
		C464.7,507.2,463.1,505.6,461.9,503.7z"/>
	<path d="M561.1,496.1c-0.5-2.3-0.3-4.3,0.8-6c1.3-2,3-3.1,5.1-3.3l24.9,15.4c4.6,2.8,9.4,5.2,14.6,7.2c5.1,2,9.8,1.3,13.9-2
		l2.8-2.4l-0.9-0.5c-11-2.9-20.3-6.7-28.1-11.5c-2.6-1.6-4.8-3.4-6.8-5.4c-4.4-8.2-4.1-16.1,0.8-23.6c5.6-8.7,14-14.5,25.1-17.5
		c11.1-2.9,21.5-1.4,31.3,4.6c4.6,2.8,8.2,7.2,10.8,13.1c3,8.9,3.3,16.5,0.8,22.6c-2.5,6.1-5,11-7.3,14.6
		c-12.1,18.8-23.7,26.5-34.8,23.2c-8.1-2.3-16.5-6.1-25.1-11.4L561.1,496.1z M630.3,495.2c1.3-2.7,2.8-5.5,4.3-8.5
		c1.5-3,2.3-6,2.3-9.2c0-3.1-0.8-5.3-2.4-6.5c-1.6-1.2-2.7-2-3.3-2.3c-3.2-2-7.5-2-13.1-0.2c-5.6,1.8-9.6,4.6-11.9,8.2
		c-0.9,1.4-1,2.5-0.3,3.3c0.7,0.8,2,1.8,4,3.1l11,6.2l9.2,6.3L630.3,495.2z M648.8,436.6c7.2,1.3,12.7-1,16.5-6.9
		c0.9-1.4,1.6-2.8,2-4.1c1.3-7-1-12.4-7-16.1l-4.1-2c-7.2-1.3-12.7,1-16.5,6.9l-2,4.1c-1.3,7,1,12.4,7,16.1
		C646.1,435.6,647.5,436.2,648.8,436.6z"/>
</g>
<g>
	<path d="M612.4,576.4c-1.2-1.1-1.6-1.9-1.2-2.4c0.7-0.7,2.4-1,5-0.9c10.9,1.7,22,2.2,33.5,1.3c11.5-0.9,20-4.2,25.5-10.1
		c3.7-3.9,6.3-10.6,7.9-20l1.2-7.1c1-5,2.2-8.2,3.6-9.6c1.4-1.5,3.1-1.8,5.2-1.1c2.1,0.8,4,1.9,5.7,3.5c5.5,5,7.6,11.8,6.5,20.5
		c-1.1,8.7-5.1,16.7-12.1,24l-3.8,4c-3.7,4.4-6.1,8.2-7.1,11.5c-1.1,3.3,0.1,6.6,3.6,9.7l-7.6,8c-7.2-6.6-11.4-13.1-12.6-19.6
		c-19.1,3-36.6-0.7-52.6-11.2L612.4,576.4z"/>
	<path d="M678,607.6l7.6-8l1.9,1.7c15.7,10.7,26.2,15.5,31.5,14.4c5.2-1.1,9.1-3,11.7-5.7c3.9-4.1,7.5-10.4,10.8-18.7
		c1.9-6.9,5.3-16.7,10.3-29.4c4.9-12.7,9.7-21.5,14.3-26.4c2.3-2.4,4-3.2,5-2.3c1.7,1.6,2.5,6.6,2.4,15.1c-0.6,15.7-3.4,30.4-8.5,44
		c-2.8,9.3-8.3,18.3-16.6,27c-13.4,14.1-24.9,19.1-34.4,14.9c-8.5-3.2-16.5-8.2-23.9-15L678,607.6z M775.1,490.8l6.9,2.9l19,9.2
		c23.2,10.2,43.5,15.1,61.2,14.6c17.6-0.5,35.7-3.2,54.2-8.1c25.2-6,44-9.3,56.5-9.7c5.3-0.2,8.7,0.4,10.1,1.8c0,0.9-0.5,2-1.7,3.2
		c-2.3,2.4-7.2,5.4-14.8,9l-8.5,3.8c-26.9,12.7-54.5,19.4-82.9,20c-28.4,0.7-55.3-7.6-80.6-24.8c-4.2-2.9-7.9-5.8-11.1-8.8
		C777.6,498.4,774.8,494.1,775.1,490.8z"/>
</g>
<g>
	<g>
		<path d="M233.1,444.7c-34.2,1.1-73.7,3.5-98.1,31.1c-9.2,10.4-15,23.3-15.6,37.3c-0.6,13.6,4.2,27.2,11.9,38.3
			c18.8,27.1,50.4,39.3,77.8,55.7c9.9,5.9,19.6,12.2,29,18.8c5.2,3.6,10.3,7.3,15.4,11c2.7,2,5.3,4.1,8,6.1
			c-0.1-0.1-1.7-1.3-0.6-0.4c0.3,0.2,0.6,0.4,0.8,0.7c0.7,0.5,1.4,1.1,2.1,1.7c1.3,1.1,2.7,2.1,4,3.2c21.1,16.9,41.1,35.5,58.1,56.4
			c1,1.2,2,2.5,3,3.7c0.3,0.3,0.5,0.7,0.8,1c-0.1-0.1-1.3-1.8-0.4-0.6c0.5,0.7,1.1,1.4,1.6,2.1c2,2.6,3.9,5.3,5.7,8
			c3.5,5.1,6.8,10.4,9.8,15.8c1.5,2.7,2.9,5.4,4.2,8.2c0.6,1.2,1.1,2.5,1.7,3.7c0.3,0.6,1.2,3,0.1,0.2c0.3,0.7,0.6,1.5,0.9,2.2
			c2.1,5.3,3.9,10.8,5.2,16.4c0.6,2.7,1.1,5.4,1.5,8.1c0.3,1.7-0.2-2-0.1-0.9c0,0.4,0.1,0.7,0.1,1.1c0.1,0.6,0.1,1.2,0.2,1.8
			c0.1,1.5,0.2,2.9,0.3,4.4c0.1,2.7,0.1,5.4-0.1,8.1c-0.1,1.2-0.2,2.5-0.3,3.7c-0.1,0.7-0.5,3.5,0,0.2c-0.1,0.7-0.2,1.5-0.3,2.2
			c-0.9,5.5-2.4,10.8-4.5,16c-0.1,0.4-0.3,0.7-0.4,1.1c-0.4,1.1,1-2.2,0.3-0.7c-0.3,0.6-0.5,1.1-0.8,1.7c-0.8,1.7-1.8,3.3-2.8,4.9
			c-0.9,1.4-1.8,2.8-2.8,4.2c-0.2,0.2-0.6,0.6-0.7,0.9c0.6-1.4,0.9-1.2,0.4-0.5c-0.6,0.8-1.3,1.6-2,2.3c-2.2,2.6-4.7,5-7.2,7.2
			c-0.7,0.6-1.4,1.2-2.1,1.8c-0.3,0.2-0.6,0.5-0.9,0.7c-1.2,1,0.4-0.3,0.5-0.4c-0.7,0.2-1.7,1.3-2.3,1.7c-0.8,0.5-1.5,1.1-2.3,1.6
			c-2.9,1.9-5.9,3.7-9,5.3c-1.5,0.8-3.1,1.6-4.6,2.3c-0.8,0.4-1.6,0.7-2.4,1.1c0,0-1,0.4-1.1,0.5c1.2-0.5,1.4-0.6,0.8-0.3
			c-0.3,0.1-0.5,0.2-0.8,0.3c-6.7,2.7-13.7,4.9-20.8,6.6c-3.7,0.9-7.4,1.7-11.1,2.3c-1.8,0.3-3.5,0.6-5.3,0.9
			c-0.9,0.1-1.8,0.3-2.7,0.4c-1.2,0.2-1.2-0.4,0.3,0c-0.5-0.1-1.3,0.2-1.8,0.2c-16.7,2.1-33.6,2.4-50.4,1.9
			c-9.2-0.3-18.3-0.9-27.4-1.8c-2.1-0.2-4.1-0.4-6.2-0.7c-1.2-0.1-2.4-0.3-3.6-0.4c-0.5-0.1-1-0.1-1.5-0.2c-0.3,0-2.8-0.3-0.5-0.1
			c-4.6-0.6-9.2-1.3-13.8-2.1c-17.8-3-35.4-7.3-52.7-12.7c-8.7-2.7-17.4-5.8-25.9-9.1c-2-0.8-4.1-1.6-6.1-2.4c-1-0.4-2-0.8-3-1.3
			c0.3,0.1,1.7,0.7,0.1,0.1c-0.7-0.3-1.3-0.6-2-0.9c-4.2-1.8-8.5-3.7-12.6-5.7c-7.9-3.8-15.7-7.8-23.3-12.1
			c-4.1-2.3-10-1.1-12.3,3.2c-2.2,4.2-1.2,9.9,3.2,12.3c32.4,18.1,67.3,31.7,103.3,40.4c35.9,8.6,73.1,12.6,110,11.3
			c30.7-1.1,63.1-5.7,89.7-22.2c12.7-7.8,24.1-18.7,31-32c5.7-11,8.5-23.8,8.9-36.2c0.6-24.5-9-48.4-21.8-68.9
			c-14.4-23-33.2-43.3-53.2-61.6c-19.8-18.1-41.2-34.5-63.4-49.4c-9.3-6.2-18.7-12.1-28.3-17.7c-14.2-8.2-29.1-15.2-42.7-24.5
			c-1.8-1.2-3.5-2.5-5.2-3.8c-0.3-0.2-1.4-0.9,0.1,0.1c-0.4-0.3-0.8-0.6-1.1-0.9c-1-0.8-2-1.7-3-2.5c-3-2.6-5.8-5.3-8.4-8.2
			c-1.2-1.3-2.2-2.7-3.4-4c1.7,1.9-0.1-0.1-0.5-0.7c-0.6-0.8-1.2-1.7-1.7-2.5c-1.8-2.7-3.4-5.6-4.8-8.6c-0.2-0.4-0.3-0.8-0.5-1.2
			c0.1,0.1,0.8,2.1,0.3,0.7c-0.3-0.7-0.5-1.4-0.8-2.1c-0.5-1.5-1-3-1.4-4.5c-0.4-1.4-0.7-2.8-0.9-4.3c-0.1-0.3-0.1-0.6-0.2-0.9
			c-0.3-1.7,0.2,2,0.1,0.7c-0.1-0.9-0.2-1.7-0.2-2.6c-0.2-2.9,0-5.7,0.2-8.6c0.1-1.2-0.4,2.5-0.1,0.8c0.1-0.3,0.1-0.6,0.1-0.9
			c0.1-0.7,0.2-1.4,0.4-2c0.3-1.4,0.7-2.9,1.1-4.3c0.4-1.3,1-2.6,1.4-4c-1,2.9-0.1,0.2,0.3-0.4c0.3-0.7,0.7-1.4,1.1-2.1
			c0.7-1.3,1.4-2.5,2.2-3.7c0.4-0.5,0.7-1.1,1.1-1.6c0.2-0.3,0.5-0.7,0.7-1c0.5-0.7-1.5,1.8-0.2,0.2c2-2.4,4.2-4.8,6.5-6.9
			c1.2-1.1,2.6-2,3.7-3.1c-1.5,1.6-0.9,0.7-0.3,0.2c0.4-0.3,0.7-0.5,1.1-0.8c0.8-0.5,1.5-1.1,2.3-1.6c3-2,6.2-3.8,9.5-5.3
			c0.8-0.4,1.7-0.8,2.5-1.2c1.5-0.7-0.2,0.1-0.4,0.2c0.5-0.3,1.1-0.4,1.6-0.7c2.2-0.9,4.5-1.6,6.7-2.3c4.5-1.4,9.2-2.5,13.9-3.3
			c2.2-0.4,4.5-0.8,6.7-1.1c-1.9,0.2-0.5,0.1-0.1,0c0.6-0.1,1.3-0.2,1.9-0.2c1.4-0.2,2.8-0.3,4.1-0.4c9.1-0.9,18.2-1.2,27.3-1.5
			c4.7-0.2,9.2-4,9-9C241.9,448.9,238.1,444.5,233.1,444.7L233.1,444.7z"/>
	</g>
</g>
<g>
	<g>
		<path d="M83.9,786c-15.2,2-30.4,3.9-45.6,5.9c-3.6,0.5-7.3,0.7-10.8,1.9c-4.3,1.5-8.4,4-10.7,8.2c-2.4,4.5-2.6,9.6-1.2,14.4
			c1.2,3.9,3.2,7.6,5,11.2c3.8,7.7,7.7,15.4,11.5,23.1c1,1.9,3.3,3.6,5.4,4.1c2.2,0.6,5,0.3,6.9-0.9c4.3-2.8,5.5-7.8,3.2-12.3
			c-2.5-5-5-10.1-7.5-15.1c-2.4-4.9-5.1-9.7-7.2-14.7c0.3,0.7,0.6,1.4,0.9,2.1c-0.6-1.6-1.2-3.2-1.4-4.8c0.1,0.8,0.2,1.6,0.3,2.4
			c-0.1-0.8-0.1-1.6,0-2.4c-0.1,0.8-0.2,1.6-0.3,2.4c0.1-0.7,0.2-1.3,0.5-1.9c-0.3,0.7-0.6,1.4-0.9,2.1c0.3-0.6,0.6-1.1,0.9-1.6
			c-0.5,0.6-0.9,1.2-1.4,1.8c0.4-0.5,0.9-1,1.4-1.4c-0.6,0.5-1.2,0.9-1.8,1.4c0.7-0.5,1.5-1,2.3-1.3c-0.7,0.3-1.4,0.6-2.1,0.9
			c2.1-0.9,4.3-1.3,6.5-1.6c-0.8,0.1-1.6,0.2-2.4,0.3c16.1-2.1,32.3-4.2,48.4-6.3c2.5-0.3,4.5-0.8,6.4-2.6c1.6-1.6,2.7-4.1,2.6-6.4
			c-0.1-2.3-0.9-4.7-2.6-6.4C88.6,787.1,86.2,785.7,83.9,786L83.9,786z"/>
	</g>
</g>
</svg>
