<?xml version="1.0" encoding="utf-8"?>
<!-- Generator: Adobe Illustrator 25.2.3, SVG Export Plug-In . SVG Version: 6.00 Build 0)  -->
<svg version="1.1" id="Layer_1" xmlns="http://www.w3.org/2000/svg" xmlns:xlink="http://www.w3.org/1999/xlink" x="0px" y="0px"
	 viewBox="0 0 1000 1000" style="enable-background:new 0 0 1000 1000;" xml:space="preserve">
<style type="text/css">
	.st0{fill:#0141B3;}
	.st1{fill:none;stroke:#0141B3;stroke-width:3;stroke-miterlimit:10;}
</style>
<g>
	<path class="st0" d="M271.1,751.7c0-5,2-10.5,5.9-16.5c4-5.9,8.5-12,13.5-18.2c5.1-6.2,10.2-12.1,15.5-17.8
		c5.3-5.7,9.3-10.8,12-15.5c-1.1-10.5-2-21.4-2.8-32.6c-0.8-11.2-1.2-22.1-1.2-32.6c0-48.4,0.9-95.8,2.8-142
		c1.8-46.2,6.8-93.5,14.7-142c-2.7-0.4-7.2-1.4-13.5-2.7c-6.3-1.3-13-3.1-19.9-5.1c-6.9-2.1-13-4.3-18.3-6.8
		c-5.3-2.5-8.5-4.9-9.6-7.2l10.3-9.6h13.5c17,0.4,31.9-1.1,44.9-4.8s25-8.2,36.1-13.7s21.7-11.6,31.8-18.2
		c10.1-6.6,20.8-12.8,32.2-18.5s23.8-10.5,37.3-14.3c13.5-3.9,29.2-5.8,47.3-5.8c24.4,0,46.4,4.3,65.9,13c19.6,8.7,37,20.2,52,34.6
		s28.2,31,39.3,49.7s20.2,38.2,27.4,58.3c7.2,20.1,12.5,40.1,15.9,60s5.2,38.3,5.2,55.2c0,46.2-6.5,83.1-19.5,110.8
		c-13,27.7-31.8,48.9-56.4,63.8s-54.8,24.7-90.6,29.5c-35.8,4.8-76.4,7.2-122,7.2c-9,0-20.3,0.4-33.8,1.4
		c-13.5,0.9-27.3,3.3-41.3,7.2s-27.7,10-40.9,18.2c-13.2,8.2-24.1,19.7-32.6,34.3l-12,1.4L271.1,751.7z M423.9,354.6
		c0,11,0.1,24.8,0.4,41.5c0.3,16.7,0.9,34.9,2,54.5c1.1,19.6,2.8,39.8,5.2,60.3c2.4,20.6,5.8,40.1,10.3,58.6
		c4.5,18.5,10.3,35,17.5,49.4c7.2,14.4,16,25.2,26.6,32.5c2.7-0.4,5-0.6,7.2-0.3c2.2,0.2,4.5,0.3,7.2,0.3c19.6,0,36-4.4,49.3-13.3
		c13.2-8.9,24-20,32.2-33.3c8.2-13.2,14.2-27.6,17.9-43.2c3.7-15.6,5.6-30.1,5.6-43.9c0-0.9,0-2.8,0-5.8s-0.6-4.9-1.7-5.8
		c-0.6-11.9-4.1-27.4-10.7-46.6c-6.6-19.2-15.6-37.9-27-56.2c-11.4-18.3-24.4-34-38.9-47.3s-30.1-19.9-46.5-19.9
		c-9.6,0-19.4-0.3-29.4-1c-10.1-0.7-19.1,1.5-27,6.5L423.9,354.6L423.9,354.6z"/>
</g>
<path class="st1" d="M906.4,921.9H93.6c-29.2,0-53-23.8-53-53V131.1c0-29.2,23.8-53,53-53h812.7c29.2,0,53,23.8,53,53v737.8
	C959.4,898.1,935.5,921.9,906.4,921.9z"/>
</svg>
