<?xml version="1.0" encoding="utf-8"?>
<!-- Generator: Adobe Illustrator 25.2.3, SVG Export Plug-In . SVG Version: 6.00 Build 0)  -->
<svg version="1.1" id="Layer_1" xmlns="http://www.w3.org/2000/svg" xmlns:xlink="http://www.w3.org/1999/xlink" x="0px" y="0px"
	 viewBox="0 0 1000 1000" style="enable-background:new 0 0 1000 1000;" xml:space="preserve">
<g>
	<path d="M382.1,346.1h-17.4c-7.2,0-13.6,0.2-19.2,0.6c-4.4,0.8-6.9,2.1-7.5,3.9s0.9,3.5,4.5,5.1c11.6,3.6,21.4,9.8,29.4,18.6
		c4.4,5.6,6.6,12,6.6,19.2c0,8-2,15.4-6,22.2c-6.4,10.8-15,19.4-25.8,25.8c-22.8,12.8-47,16-72.6,9.6c-22-5.2-39.6-17-52.8-35.4
		c-13.6-24.4-13.8-49.4-0.6-75c1.6-2.4,4.6-7,9-13.8c4.4-6.8,9.2-13.2,14.4-19.2c5.2-6,9.2-9,12-9c-1.6,3.6-3.2,6.8-4.8,9.6
		c-3.2,6.4-6.8,13.6-10.8,21.6c-4,8-6.6,13.4-7.8,16.2c-8.4,20.8-6.6,40.4,5.4,58.8c11.2,13.6,26,21.6,44.4,24
		c18.4,2.4,35.2-0.8,50.4-9.6c2.4-1.6,5.4-4.1,9-7.5c3.6-3.4,6.5-7.1,8.7-11.1c2.2-4,2.5-7.6,0.9-10.8c-2-2.8-4.7-5.2-8.1-7.2
		c-3.4-2-6.7-3.6-9.9-4.8c-15.6-8.8-21.9-18.6-18.9-29.4c3-10.8,11.5-16,25.5-15.6h21h21V346.1z"/>
	<path d="M413.3,340.1c-7.6,4-18.2,6-31.8,6c-1.2-2-1.8-4.8-1.8-8.4c0-2,0.6-3.6,1.8-4.8c16,0,24-8.6,24-25.8l-0.6-7.8v-21.6
		c0-7.2,1.6-12,4.8-14.4c4.4,0,8.8,3.2,13.2,9.6c7.2,10.4,10.8,21.6,10.8,33.6c0,8-2.4,15.4-7.2,22.2c2.4,2.8,6,4.2,10.8,4.2v13.2
		C428.9,346.1,420.8,344.1,413.3,340.1z M392.3,246.8c-2-2.2-3-4.5-3-6.9c0-4,1.2-7.1,3.6-9.3c2.4-2.2,5.2-3.3,8.4-3.3
		c3.2,0.4,5.8,1.8,7.8,4.2c2,2.4,3,5.2,3,8.4c-0.4,3.2-1.7,5.7-3.9,7.5c-2.2,1.8-4.5,2.7-6.9,2.7C397.2,250.1,394.2,249,392.3,246.8
		z M415.1,242.9c-2-2.4-3-5.2-3-8.4c0.8-7.2,5-10.8,12.6-10.8c3.2,0.4,5.7,1.8,7.5,4.2c1.8,2.4,2.7,5.2,2.7,8.4
		c-0.4,3.2-1.7,5.7-3.9,7.5c-2.2,1.8-4.5,2.7-6.9,2.7C420,246.5,417,245.3,415.1,242.9z"/>
	<path d="M436.6,346.1c-0.4-0.8-0.6-2-0.6-3.6l0.6-9.6h0.6c4.4-0.4,8.6-2.5,12.6-6.3c4-3.8,6-7.7,6-11.7c0-4.8-0.2-8.6-0.6-11.4
		c-0.4-2.8-0.6-5.6-0.6-8.4v-4.2c0-4,1.6-6.8,4.8-8.4c2.8,0,5.2,1,7.2,3c7.2,7.2,10.8,15.4,10.8,24.6c0,4-0.8,8.2-2.4,12.6
		c1.2,0,2.7,0.2,4.5,0.6c1.8,0.4,3.7,0.6,5.7,0.6c7.2,0,11.4-4.4,12.6-13.2l1.2-4.2c2.4-12.8,6-20,10.8-21.6c3.6,0,6.5,2.3,8.7,6.9
		c2.2,4.6,3.6,9,4.2,13.2c0.6,4.2,0.9,7.5,0.9,9.9l-0.6,6l4.8,0.6c13.2,0,20.6-7.6,22.2-22.8l-1.2-23.4c0-5.2,1.6-7.8,4.8-7.8
		c3.6,0,8.6,4.2,15,12.6c4.8,6.8,7.2,14.2,7.2,22.2c0,11.2-4.2,21-12.6,29.4c-7.2,6.8-16.2,10.2-27,10.2c-8,0-15.4-1.8-22.2-5.4
		l-1.2,1.2c-6.8,4.4-13.6,6.6-20.4,6.6c-10.4,0-19.2-3.6-26.4-10.8c-3.6,3.6-7.5,6.4-11.7,8.4c-4.2,2-9.9,3.4-17.1,4.2H436.6z"/>
	<path d="M602.8,315.8c-2-13-3.6-26.4-4.8-40.2c-1.2-13.8-2-23.3-2.4-28.5c0-4,0.2-9.9,0.6-17.7c0.4-7.8,1.4-15.4,3-22.8
		c1.6-7.4,4.2-11.9,7.8-13.5c3.2,0,6,4.2,8.4,12.6c4.8,14,7.2,28.2,7.2,42.6c0,8-1,24-3,48c-2,26.4-5.2,41-9.6,43.8
		C607.2,336.9,604.8,328.8,602.8,315.8z"/>
	<path d="M636.4,410.9c0.8-2,4.2-4.8,10.2-8.4c24.4-12.8,41.4-32,51-57.6c-34,0-51-13-51-39c0-4.4,0.8-9.2,2.4-14.4
		c4.4-12.8,13-22,25.8-27.6c4.4-1.6,8.6-2.4,12.6-2.4c6.4,0,12.6,1.8,18.6,5.4c10.4,7.2,16.3,15.2,17.7,24c1.4,8.8,2.1,15.8,2.1,21
		c0,6.8-0.8,13.8-2.4,21h9v13.2h-12.6c-4.8,14-14.8,28.3-30,42.9c-15.2,14.6-31.2,21.9-48,21.9H636.4z M701.8,317.9
		c0-5.2-0.6-10.6-1.8-16.2c-2.4-8-5.2-12-8.4-12h-4.8c-5.2,0-9.4,2.2-12.6,6.6c-2,2.8-3,5.8-3,9c0,10.8,9.8,19.4,29.4,25.8
		C701.4,326.7,701.8,322.3,701.8,317.9z"/>
	<path d="M731.8,346.1c-0.8-1.6-1.2-3.8-1.2-6.6c0-2.4,0.4-4.6,1.2-6.6c12.8,0,22.1-0.3,27.9-0.9c5.8-0.6,11.5-2.1,17.1-4.5
		c5.6-2.4,13.2-6.6,22.8-12.6c4.8-3.2,7.2-5.8,7.2-7.8c0-4-11.2-12.8-33.6-26.4c-1.6-1.2-2.9-2.3-3.9-3.3c-1-1-2.1-1.5-3.3-1.5
		c-0.8,0-2.8,2.6-6,7.8c-3.2,5.2-5.6,10.2-7.2,15l-1.2,2.4c-1.2,6.8-3.2,10.6-6,11.4c-2.8,0-4.8-3.4-6-10.2c-0.4-2.8-0.6-5.8-0.6-9
		c0-12.8,4-24.2,12-34.2c4.8-4.8,10.4-7.2,16.8-7.2c6.4,0,15,3.2,25.8,9.6l18,12.6c8,5.6,14.6,12.4,19.8,20.4c2,4,3,7.6,3,10.8
		c0,8.8-5.6,16.6-16.8,23.4c-12,8.4-23.3,13.4-33.9,15c-10.6,1.6-21.7,2.4-33.3,2.4H731.8z M758.2,210.5c-2.8-2.8-4.4-6.4-4.8-10.8
		c0.4-4.4,2-8,4.8-10.8c2.8-2.8,6.4-4.4,10.8-4.8c4.4,0.4,8,2,10.8,4.8c2.8,2.8,4.2,6.4,4.2,10.8c0,4.4-1.4,8-4.2,10.8
		c-2.8,2.8-6.4,4.2-10.8,4.2C764.6,214.7,761,213.3,758.2,210.5z"/>
	<path d="M799.6,416.3c17.2-14.8,30-28.1,38.4-39.9c8.4-11.8,15.8-28.5,22.2-50.1l3-12c5.6-20.4,10-31.2,13.2-32.4
		c3.2,0,5.6,5.2,7.2,15.6c1.6,10.4,2.4,19,2.4,25.8c0,17.2-4.4,32.8-13.2,46.8c-4,5.6-10.9,12.7-20.7,21.3
		c-9.8,8.6-18.9,15.2-27.3,19.8c-8.4,4.6-14.8,6.9-19.2,6.9C803.2,418.1,801.2,417.5,799.6,416.3z"/>
	<path d="M886.6,370.1c0-1.6,1.2-3.2,3.6-4.8c22.8-15.6,37-31.6,42.6-48c0.8-2.4,1.2-4.8,1.2-7.2c0-6.4-3-14-9-22.8
		c-1.6-3.6-3.4-6.6-5.4-9c-3.6-4-5.4-7.8-5.4-11.4c0-4,3.8-6,11.4-6c7.2,0,14.2,3.8,21,11.4c8,10,12,20.4,12,31.2
		c0,9.6-3.2,19.4-9.6,29.4c-14,21.2-33.6,34-58.8,38.4C887.8,371.3,886.6,370.9,886.6,370.1z"/>
</g>
<g>
	<path d="M45.8,282.8c-3.9-9.4-5-20.1-3.3-32c1-7.1,3.4-18.1,7.2-32.9c8.3-35.6,14.1-58.1,17.3-67.5c3.2-9.4,5.6-14.6,7.4-15.6
		c3.4,4.5,3.4,21.5,0,50.9L67,236.2c-2.4,16.6-1.7,30.3,2,40.9c2.3,6.8,6.5,11,12.7,12.7l-1.9,13.1C61,299,49.7,292.3,45.8,282.8z"
		/>
	<path d="M117.1,301c-7.2,2.2-13.4,3.3-18.7,3.4c-5.3,0.1-11.7-0.5-19.2-1.5c0-2.8,0.3-6,0.8-9.6l1.1-3.5l3.6,0.5
		c2,0.3,7.2,0.4,15.7,0.4c2.8,0,5.3-0.2,7.4-0.8c-9.1-15.4-12.6-30.7-10.4-45.7c1-7.1,3.2-14.1,6.6-20.9
		c9.4-17.6,24.9-28.1,46.4-31.5c4.5-0.6,8.6-0.6,12.1-0.1c12.7,1.8,20.8,8.7,24.3,20.5l0.9,2c23.4,8.6,38.2,24.9,44.5,48.8
		c0.2,4.5,0,8.5-0.5,12c-1.9,13.1-8,23.3-18.4,30.7c-14,10.1-26.4,15-37.3,14.6c-10.9-0.3-17.7-0.7-20.4-1.1
		C141,317.1,128.2,311.1,117.1,301z M135.7,277c7.4-6.2,14.1-13.7,20.2-22.6c6.1-8.8,10.2-17.7,12.3-26.7c1.2-8.3,0.5-12.9-2-13.6
		c-2.5-0.8-4.4-1.2-5.6-1.4c-4-0.6-8.5,0-13.6,1.7c-13.8,5.7-21.3,12.1-22.8,19.2c-1.4,7.1-2.2,11-2.3,11.8
		c-1.8,12.3,1.8,23.7,10.8,34.3L135.7,277z M190.2,290.3c13.1-6.6,20.2-13.9,21.3-21.8c0.5-3.2,0.1-6.2-1.1-9.2
		c-4-11.9-11.5-22.7-22.6-32.3l-1.4,5.3c-8.2,23.1-22.3,41.4-42.5,55.1l-0.7,0.5c6,3.3,12.2,5.4,18.5,6.3
		C170.8,295.4,180.3,294.1,190.2,290.3z"/>
</g>
<g>
	<g>
		<path d="M471.7,431.5c7.6,37.9,42,63.1,77.1,74c45.5,14.1,93.9,4,140.4,2.9c5.4-0.1,10.8-0.2,16.2,0.1c1,0.1,2,0.1,2.9,0.2
			c0.5,0,1,0.1,1.5,0.1c0,0,2.5,0.3,1,0.1c-1.1-0.2,1.8,0.3,2.1,0.4c1.1,0.2,2.2,0.4,3.3,0.7c1.9,0.4,3.8,1,5.7,1.6
			c0.9,0.3,1.8,0.7,2.7,1c-2-0.8,1.1,0.6,1.7,0.9c0.8,0.4,1.6,0.9,2.4,1.4c0.6,0.4,2.5,1.8,0.9,0.5c0.7,0.6,1.4,1.1,2,1.7
			c0.5,0.5,2.4,3,1.2,1.1c0.5,0.7,1,1.4,1.4,2.2c0.4,0.8,0.9,2.8,0.5,0.8c0.2,0.9,0.6,1.7,0.8,2.6c0.1,0.4,0.2,0.9,0.3,1.4
			c-0.2-1.8-0.1,1-0.1,1.1c0,0.6,0,1.2-0.1,1.7c0-0.4,0.3-1.5-0.1,0.2c-0.3,1.1-0.6,2.2-1,3.3c0.5-1.4-0.8,1.5-1,1.8
			c-0.3,0.5-0.6,1-0.9,1.5c-0.2,0.2-1.6,2.2-0.7,1.1c-3.4,4.2-5.9,5.9-11,8.4c-0.6,0.3-1.2,0.6-1.8,0.8c-1.5,0.6,1-0.4-0.5,0.2
			c-1.4,0.5-2.7,1-4.1,1.5c-2.6,0.9-5.3,1.6-8,2.3c-47,11.8-95.3,14.7-144,15.1c-48.5,0.4-97-2.1-145.5-2.2
			c-47.1,0-94.5,2.3-140.9,11.2c-22.5,4.4-44.7,10.4-66.1,18.5c-10.1,3.8-19.9,7.8-28.4,14.6c-7.9,6.2-13.8,15.9-13.1,26.3
			c0.8,11.5,7.9,21.2,17.5,27.1c10.5,6.4,23.2,7.4,35.2,7.7c25.4,0.7,50.8,1.3,76.2,1.9c25.5,0.6,51,1.3,76.5,1.9
			c12.3,0.3,24.5,0.5,36.8,1.1c12.2,0.6,22.6,1.6,34.3,4.6c2.7,0.7,5.4,1.5,8.1,2.4c1.1,0.4,2.1,0.7,3.2,1.1
			c0.5,0.2,1.1,0.4,1.6,0.6c2.6,1-1.5-0.7,1,0.4c4.4,2,8.7,4.3,12.8,7c0.9,0.6,1.9,1.3,2.8,1.9c0.5,0.3,0.9,0.7,1.4,1
			c-0.3-0.2-1.2-0.9,0.2,0.2c1.8,1.5,3.6,3.1,5.3,4.8c1.7,1.7,3.3,3.5,4.8,5.3c-1-1.3,0.9,1.3,1.1,1.5c0.7,1,1.4,2.1,2,3.2
			c1.2,1.9,2.2,3.9,3.1,6c0.6,1.5-0.7-2,0.2,0.6c0.2,0.5,0.4,1,0.5,1.5c0.4,1.1,0.7,2.2,1,3.3c0.2,1,0.4,2,0.6,3
			c0.3,1.3-0.1-1.5,0-0.1c0,0.5,0.1,1,0.1,1.5c0.2,2.2,0.2,4.3,0,6.5c0,0.5-0.1,1-0.2,1.5c0.3-2,0-0.3-0.1,0.2
			c-0.2,1-0.4,1.9-0.7,2.9c-0.1,0.4-1,3-0.6,2.1c0.4-1.1-0.2,0.3-0.3,0.6c-0.3,0.5-0.5,1.1-0.8,1.6c-0.5,0.8-1,1.6-1.6,2.4
			c1.1-1.6-0.5,0.5-0.9,0.9c-0.3,0.3-0.7,0.7-1,1c-1.5,1.6,1-0.4-0.2,0.2c-1.1,0.6-2,1.3-3.1,1.8c1.3-0.6,0,0-0.3,0.1
			c-0.6,0.2-1.1,0.3-1.7,0.5c-1.7,0.4-0.6,0.1-0.2,0.1c-0.6,0-1.1,0-1.7,0.1c-1.7,0-0.6,0-0.1,0.1c-0.6-0.1-1.1-0.3-1.6-0.4
			c1.3,0.4,0.2,0.1-0.2-0.1c-1.5-0.7-0.5-0.3-0.1,0.1c-0.4-0.3-0.7-0.7-1-1c1.3,1.4,0.1,0.3,0-0.3c-0.3-1.2,0.2,1.4,0,0.2
			c0-0.4-0.2-1-0.4-1.4c0-0.1,0-0.2-0.1-0.4c0.1,1.1,0.2,1.3,0.2,0.6c-0.3-0.4,0.5-1.7,0-0.5c-0.7,1.5,0.6-1.2,0,0.3
			c-0.6,1.4,1.3-1.4-0.4,0.5c-5-1.3-10-2.6-15-4c3.4,15.4,17.4,26.8,32.9,28c15.9,1.2,30.3-9.7,35.9-24c1.7-4.4-1.9-10.1-6.3-11.1
			c-5.2-1.2-9.2,1.6-11.1,6.3c0.5-1.2,0.1-0.2-0.2,0.4c-0.3,0.6-0.6,1.2-1,1.8c-0.3,0.5-0.6,0.9-0.9,1.3c-1.4,2.1,0.6-0.7-0.3,0.4
			c-0.8,0.9-1.7,1.7-2.5,2.6c-1.8,1.7,0.8-0.5-0.4,0.4c-0.5,0.4-1.1,0.8-1.7,1.1c-1,0.6-2.1,1.2-3.2,1.7c-0.9,0.4,1.1-0.3-0.5,0.1
			c-0.6,0.2-1.3,0.4-1.9,0.6c-0.6,0.2-1.3,0.3-2,0.4c0.8-0.2,0.9-0.1,0,0c-1.3,0.1-2.7,0.1-4,0c-0.9,0-0.8-0.2,0,0
			c-0.7-0.2-1.3-0.3-2-0.4c-0.7-0.2-3.5-1.2-2-0.6c-1.2-0.6-2.4-1.2-3.5-1.9c-0.5-0.3-0.9-0.6-1.3-0.9c1.3,0.9-0.1-0.1-0.4-0.4
			c-1-0.9-1.9-1.9-2.8-2.9c-0.9-1.1,1.1,1.7-0.3-0.4c-0.3-0.4-0.6-0.9-0.9-1.3c-0.3-0.6-0.7-1.2-1-1.8c-0.2-0.3-0.8-2-0.2-0.4
			c-0.5-1.3-0.8-2.5-1.1-3.9c-1.4-6.3-10.7-9.1-15-4c-4.3,5-5.9,11.2-4.2,17.7c1.5,5.7,5.6,10.8,11.1,13.2
			c11.1,4.9,24.2,0.8,31.8-8.3c13.8-16.4,10.6-40.8-0.8-57.5c-12.3-18-31.9-29.4-52.8-34.9c-24.4-6.4-50.2-5.8-75.3-6.4
			c-26.2-0.7-52.5-1.3-78.7-2c-25.9-0.6-51.8-1-77.6-2c-6.1-0.2-10.3-0.5-15.7-2c-2.7-0.7-4.4-1.3-6.4-2.4c-1-0.5-1.9-1.1-2.8-1.7
			c-0.2-0.1-1.6-1.2-0.8-0.5c0.6,0.5-1.1-1-1.3-1.2c-0.8-0.8-1.6-1.6-2.3-2.4c-0.9-1.1,0.7,1-0.1-0.1c-0.4-0.6-0.8-1.1-1.1-1.7
			c-0.3-0.5-1.3-3.1-0.8-1.5c-0.2-0.5-0.3-1-0.5-1.5c-0.1-0.4-0.5-2.8-0.3-0.8c-0.1-1.1-0.1-2.2-0.1-3.2c0-0.5,0.4-1.5,0,0.1
			c0.1-0.5,0.2-1,0.3-1.5c0.2-0.7,1.2-3,0.3-1.3c0.5-1.1,1.2-2.1,1.8-3.2c0.2-0.3,1-1.3-0.1,0c0.3-0.4,0.6-0.8,1-1.1
			c0.7-0.8,1.4-1.5,2.1-2.2c0.4-0.3,0.8-0.7,1.2-1c1.8-1.7-0.9,0.6,0.3-0.3c1-0.7,1.9-1.4,2.9-2c1.9-1.2,3.9-2.3,6-3.4
			c1.1-0.5,2.2-1.1,3.3-1.6c0.5-0.2,1-0.4,1.5-0.6c-1.3,0.6-0.2,0.1,0.5-0.2c11-4.4,22.1-8.3,33.5-11.7
			c45.8-13.5,91.5-18.3,139.1-19.8c49.1-1.5,98.2,0.8,147.4,1.5c50.7,0.7,101.6-0.4,151.7-9c11.9-2,23.8-4.3,35.4-7.5
			c11.4-3.1,23.1-8.1,30.6-17.6c7.5-9.4,11-21.8,6.1-33.3c-3.6-8.5-10.7-14.7-19.1-18.4c-20.1-8.7-43.2-6.4-64.5-5
			c-25.2,1.6-50.4,4.4-75.6,3.1c-3.1-0.2-6.2-0.4-9.3-0.6c-1.5-0.1-2.9-0.3-4.4-0.4c-0.7-0.1-1.5-0.2-2.2-0.3c-0.7-0.1-0.7-0.1,0,0
			c-0.4-0.1-0.8-0.1-1.2-0.2c-4.6-0.7-9.2-1.6-13.7-2.7c-4.4-1.1-8.8-2.4-13.2-4c-2-0.7-4.1-1.5-6.1-2.3c-1.6-0.7-0.4-0.2-0.1,0
			c-0.6-0.3-1.2-0.5-1.9-0.8c-1.1-0.5-2.2-1-3.3-1.5c-4.2-2-8.3-4.3-12.3-6.8c-1.9-1.2-3.8-2.5-5.6-3.8c-0.9-0.6-1.7-1.2-2.5-1.9
			c0.3,0.2,1.3,1,0,0c-0.6-0.5-1.2-1-1.8-1.5c-3.4-2.8-6.6-5.9-9.5-9.1c-1.4-1.5-2.7-3.1-3.9-4.7c1.2,1.6-0.9-1.2-1.1-1.6
			c-0.7-0.9-1.3-1.9-1.9-2.9c-1.2-1.8-2.2-3.7-3.2-5.6c-0.5-1-1-2-1.5-3.1c-0.2-0.5-0.4-0.9-0.6-1.4c0.1,0.3,0.6,1.6,0,0
			c-1.6-4.1-2.9-8.3-3.7-12.7c-0.9-4.6-6.7-7.7-11.1-6.3C473.1,422.1,470.7,426.6,471.7,431.5L471.7,431.5z"/>
	</g>
</g>
</svg>
