<?xml version="1.0" encoding="utf-8"?>
<!-- Generator: Adobe Illustrator 25.2.3, SVG Export Plug-In . SVG Version: 6.00 Build 0)  -->
<svg version="1.1" id="Layer_1" xmlns="http://www.w3.org/2000/svg" xmlns:xlink="http://www.w3.org/1999/xlink" x="0px" y="0px"
	 viewBox="0 0 1000 1000" style="enable-background:new 0 0 1000 1000;" xml:space="preserve">
<style type="text/css">
	.st0{font-family:'Digi-Tiam-Brush';}
	.st1{font-size:600px;}
</style>
<text transform="matrix(1 0 0 1 322.629 388.3386)" class="st0 st1">یشورف</text>
<text transform="matrix(0.9898 0.1424 -0.1424 0.9898 115.5468 363.5623)" class="st0 st1">اه</text>
<g>
	<g>
		<path d="M529.6,497.5c7.6,37.9,42,63.1,77.1,74c45.5,14.1,93.9,4,140.4,2.9c5.4-0.1,10.8-0.2,16.2,0.1c1,0.1,2,0.1,2.9,0.2
			c0.5,0,1,0.1,1.5,0.1c0,0,2.5,0.3,1,0.1c-1.1-0.2,1.8,0.3,2.1,0.4c1.1,0.2,2.2,0.4,3.3,0.7c1.9,0.4,3.8,1,5.7,1.6
			c0.9,0.3,1.8,0.7,2.7,1c-2-0.8,1.1,0.6,1.7,0.9c0.8,0.4,1.6,0.9,2.4,1.4c0.6,0.4,2.5,1.8,0.9,0.5c0.7,0.6,1.4,1.1,2,1.7
			c0.5,0.5,2.4,3,1.2,1.1c0.5,0.7,1,1.4,1.4,2.2c0.4,0.8,0.9,2.8,0.5,0.8c0.2,0.9,0.6,1.7,0.8,2.6c0.1,0.4,0.2,0.9,0.3,1.4
			c-0.2-1.8-0.1,1-0.1,1.1c0,0.6,0,1.2-0.1,1.7c0-0.4,0.3-1.5-0.1,0.2c-0.3,1.1-0.6,2.2-1,3.3c0.5-1.4-0.8,1.5-1,1.8
			c-0.3,0.5-0.6,1-0.9,1.5c-0.2,0.2-1.6,2.2-0.7,1.1c-3.4,4.2-5.9,5.9-11,8.4c-0.6,0.3-1.2,0.6-1.8,0.8c-1.5,0.6,1-0.4-0.5,0.2
			c-1.4,0.5-2.7,1-4.1,1.5c-2.6,0.9-5.3,1.6-8,2.3c-47,11.8-95.3,14.7-144,15.1c-48.5,0.4-97-2.1-145.5-2.2
			c-47.1,0-94.5,2.3-140.9,11.2c-22.5,4.4-44.7,10.4-66.1,18.5c-10.1,3.8-19.9,7.8-28.4,14.6c-7.9,6.2-13.8,15.9-13.1,26.3
			c0.8,11.5,7.9,21.2,17.5,27.1c10.5,6.4,23.2,7.4,35.2,7.7c25.4,0.7,50.8,1.3,76.2,1.9c25.5,0.6,51,1.3,76.5,1.9
			c12.3,0.3,24.5,0.5,36.8,1.1c12.2,0.6,22.6,1.6,34.3,4.6c2.7,0.7,5.4,1.5,8.1,2.4c1.1,0.4,2.1,0.7,3.2,1.1
			c0.5,0.2,1.1,0.4,1.6,0.6c2.6,1-1.5-0.7,1,0.4c4.4,2,8.7,4.3,12.8,7c0.9,0.6,1.9,1.3,2.8,1.9c0.5,0.3,0.9,0.7,1.4,1
			c-0.3-0.2-1.2-0.9,0.2,0.2c1.8,1.5,3.6,3.1,5.3,4.8c1.7,1.7,3.3,3.5,4.8,5.3c-1-1.3,0.9,1.3,1.1,1.5c0.7,1,1.4,2.1,2,3.2
			c1.2,1.9,2.2,3.9,3.1,6c0.6,1.5-0.7-2,0.2,0.6c0.2,0.5,0.4,1,0.5,1.5c0.4,1.1,0.7,2.2,1,3.3c0.2,1,0.4,2,0.6,3
			c0.3,1.3-0.1-1.5,0-0.1c0,0.5,0.1,1,0.1,1.5c0.2,2.2,0.2,4.3,0,6.5c0,0.5-0.1,1-0.2,1.5c0.3-2,0-0.3-0.1,0.2
			c-0.2,1-0.4,1.9-0.7,2.9c-0.1,0.4-1,3-0.6,2.1c0.4-1.1-0.2,0.3-0.3,0.6c-0.3,0.5-0.5,1.1-0.8,1.6c-0.5,0.8-1,1.6-1.6,2.4
			c1.1-1.6-0.5,0.5-0.9,0.9c-0.3,0.3-0.7,0.7-1,1c-1.5,1.6,1-0.4-0.2,0.2c-1.1,0.6-2,1.3-3.1,1.8c1.3-0.6,0,0-0.3,0.1
			c-0.6,0.2-1.1,0.3-1.7,0.5c-1.7,0.4-0.6,0.1-0.2,0.1c-0.6,0-1.1,0-1.7,0.1c-1.7,0-0.6,0-0.1,0.1c-0.6-0.1-1.1-0.3-1.6-0.4
			c1.3,0.4,0.2,0.1-0.2-0.1c-1.5-0.7-0.5-0.3-0.1,0.1c-0.4-0.3-0.7-0.7-1-1c1.3,1.4,0.1,0.3,0-0.3c-0.3-1.2,0.2,1.4,0,0.2
			c0-0.4-0.2-1-0.4-1.4c0-0.1,0-0.2-0.1-0.4c0.1,1.1,0.2,1.3,0.2,0.6c-0.3-0.4,0.5-1.7,0-0.5c-0.7,1.5,0.6-1.2,0,0.3
			c-0.6,1.4,1.3-1.4-0.4,0.5c-5-1.3-10-2.6-15-4c3.4,15.4,17.4,26.8,32.9,28c15.9,1.2,30.3-9.7,35.9-24c1.7-4.4-1.9-10.1-6.3-11.1
			c-5.2-1.2-9.2,1.6-11.1,6.3c0.5-1.2,0.1-0.2-0.2,0.4c-0.3,0.6-0.6,1.2-1,1.8c-0.3,0.5-0.6,0.9-0.9,1.3c-1.4,2.1,0.6-0.7-0.3,0.4
			c-0.8,0.9-1.7,1.7-2.5,2.6c-1.8,1.7,0.8-0.5-0.4,0.4c-0.5,0.4-1.1,0.8-1.7,1.1c-1,0.6-2.1,1.2-3.2,1.7c-0.9,0.4,1.1-0.3-0.5,0.1
			c-0.6,0.2-1.3,0.4-1.9,0.6c-0.6,0.2-1.3,0.3-2,0.4c0.8-0.2,0.9-0.1,0,0c-1.3,0.1-2.7,0.1-4,0c-0.9,0-0.8-0.2,0,0
			c-0.7-0.2-1.3-0.3-2-0.4c-0.7-0.2-3.5-1.2-2-0.6c-1.2-0.6-2.4-1.2-3.5-1.9c-0.5-0.3-0.9-0.6-1.3-0.9c1.3,0.9-0.1-0.1-0.4-0.4
			c-1-0.9-1.9-1.9-2.8-2.9c-0.9-1.1,1.1,1.7-0.3-0.4c-0.3-0.4-0.6-0.9-0.9-1.3c-0.3-0.6-0.7-1.2-1-1.8c-0.2-0.3-0.8-2-0.2-0.4
			c-0.5-1.3-0.8-2.5-1.1-3.9c-1.4-6.3-10.7-9.1-15-4c-4.3,5-5.9,11.2-4.2,17.7c1.5,5.7,5.6,10.8,11.1,13.2
			c11.1,4.9,24.2,0.8,31.8-8.3c13.8-16.4,10.6-40.8-0.8-57.5c-12.3-18-31.9-29.4-52.8-34.9c-24.4-6.4-50.2-5.8-75.3-6.4
			c-26.2-0.7-52.5-1.3-78.7-2c-25.9-0.6-51.8-1-77.6-2c-6.1-0.2-10.3-0.5-15.7-2c-2.7-0.7-4.4-1.3-6.4-2.4c-1-0.5-1.9-1.1-2.8-1.7
			c-0.2-0.1-1.6-1.2-0.8-0.5c0.6,0.5-1.1-1-1.3-1.2c-0.8-0.8-1.6-1.6-2.3-2.4c-0.9-1.1,0.7,1-0.1-0.1c-0.4-0.6-0.8-1.1-1.1-1.7
			c-0.3-0.5-1.3-3.1-0.8-1.5c-0.2-0.5-0.3-1-0.5-1.5c-0.1-0.4-0.5-2.8-0.3-0.8c-0.1-1.1-0.1-2.2-0.1-3.2c0-0.5,0.4-1.5,0,0.1
			c0.1-0.5,0.2-1,0.3-1.5c0.2-0.7,1.2-3,0.3-1.3c0.5-1.1,1.2-2.1,1.8-3.2c0.2-0.3,1-1.3-0.1,0c0.3-0.4,0.6-0.8,1-1.1
			c0.7-0.8,1.4-1.5,2.1-2.2c0.4-0.3,0.8-0.7,1.2-1c1.8-1.7-0.9,0.6,0.3-0.3c1-0.7,1.9-1.4,2.9-2c1.9-1.2,3.9-2.3,6-3.4
			c1.1-0.5,2.2-1.1,3.3-1.6c0.5-0.2,1-0.4,1.5-0.6c-1.3,0.6-0.2,0.1,0.5-0.2c11-4.4,22.1-8.3,33.5-11.7
			c45.8-13.5,91.5-18.3,139.1-19.8c49.1-1.5,98.2,0.8,147.4,1.5c50.7,0.7,101.6-0.4,151.7-9c11.9-2,23.8-4.3,35.4-7.5
			c11.4-3.1,23.1-8.1,30.6-17.6c7.5-9.4,11-21.8,6.1-33.3c-3.6-8.5-10.7-14.7-19.1-18.4c-20.1-8.7-43.2-6.4-64.5-5
			c-25.2,1.6-50.4,4.4-75.6,3.1c-3.1-0.2-6.2-0.4-9.3-0.6c-1.5-0.1-2.9-0.3-4.4-0.4c-0.7-0.1-1.5-0.2-2.2-0.3c-0.7-0.1-0.7-0.1,0,0
			c-0.4-0.1-0.8-0.1-1.2-0.2c-4.6-0.7-9.2-1.6-13.7-2.7c-4.4-1.1-8.8-2.4-13.2-4c-2-0.7-4.1-1.5-6.1-2.3c-1.6-0.7-0.4-0.2-0.1,0
			c-0.6-0.3-1.2-0.5-1.9-0.8c-1.1-0.5-2.2-1-3.3-1.5c-4.2-2-8.3-4.3-12.3-6.8c-1.9-1.2-3.8-2.5-5.6-3.8c-0.9-0.6-1.7-1.2-2.5-1.9
			c0.3,0.2,1.3,1,0,0c-0.6-0.5-1.2-1-1.8-1.5c-3.4-2.8-6.6-5.9-9.5-9.1c-1.4-1.5-2.7-3.1-3.9-4.7c1.2,1.6-0.9-1.2-1.1-1.6
			c-0.7-0.9-1.3-1.9-1.9-2.9c-1.2-1.8-2.2-3.7-3.2-5.6c-0.5-1-1-2-1.5-3.1c-0.2-0.5-0.4-0.9-0.6-1.4c0.1,0.3,0.6,1.6,0,0
			c-1.6-4.1-2.9-8.3-3.7-12.7c-0.9-4.6-6.7-7.7-11.1-6.3C531,488,528.6,492.5,529.6,497.5L529.6,497.5z"/>
	</g>
</g>
</svg>
