<?xml version="1.0" encoding="utf-8"?>
<!-- Generator: Adobe Illustrator 25.2.3, SVG Export Plug-In . SVG Version: 6.00 Build 0)  -->
<svg version="1.1" id="Layer_1" xmlns="http://www.w3.org/2000/svg" xmlns:xlink="http://www.w3.org/1999/xlink" x="0px" y="0px"
	 viewBox="0 0 1000 1000" style="enable-background:new 0 0 1000 1000;" xml:space="preserve">
<g>
	<path d="M503.2,388.3h-17.4c-7.2,0-13.6,0.2-19.2,0.6c-4.4,0.8-6.9,2.1-7.5,3.9s0.9,3.5,4.5,5.1c11.6,3.6,21.4,9.8,29.4,18.6
		c4.4,5.6,6.6,12,6.6,19.2c0,8-2,15.4-6,22.2c-6.4,10.8-15,19.4-25.8,25.8c-22.8,12.8-47,16-72.6,9.6c-22-5.2-39.6-17-52.8-35.4
		c-13.6-24.4-13.8-49.4-0.6-75c1.6-2.4,4.6-7,9-13.8c4.4-6.8,9.2-13.2,14.4-19.2c5.2-6,9.2-9,12-9c-1.6,3.6-3.2,6.8-4.8,9.6
		c-3.2,6.4-6.8,13.6-10.8,21.6c-4,8-6.6,13.4-7.8,16.2c-8.4,20.8-6.6,40.4,5.4,58.8c11.2,13.6,26,21.6,44.4,24
		c18.4,2.4,35.2-0.8,50.4-9.6c2.4-1.6,5.4-4.1,9-7.5c3.6-3.4,6.5-7.1,8.7-11.1c2.2-4,2.5-7.6,0.9-10.8c-2-2.8-4.7-5.2-8.1-7.2
		c-3.4-2-6.7-3.6-9.9-4.8c-15.6-8.8-21.9-18.6-18.9-29.4c3-10.8,11.5-16,25.5-15.6h21h21V388.3z"/>
	<path d="M502.6,388.3c-0.4-0.8-0.6-2-0.6-3.6l0.6-9.6h0.6c4.4-0.4,8.6-2.5,12.6-6.3c4-3.8,6-7.7,6-11.7c0-4.8-0.2-8.6-0.6-11.4
		c-0.4-2.8-0.6-5.6-0.6-8.4v-4.2c0-4,1.6-6.8,4.8-8.4c2.8,0,5.2,1,7.2,3c7.2,7.2,10.8,15.4,10.8,24.6c0,4-0.8,8.2-2.4,12.6
		c1.2,0,2.7,0.2,4.5,0.6c1.8,0.4,3.7,0.6,5.7,0.6c7.2,0,11.4-4.4,12.6-13.2l1.2-4.2c2.4-12.8,6-20,10.8-21.6c3.6,0,6.5,2.3,8.7,6.9
		c2.2,4.6,3.6,9,4.2,13.2c0.6,4.2,0.9,7.5,0.9,9.9l-0.6,6l4.8,0.6c13.2,0,20.6-7.6,22.2-22.8l-1.2-23.4c0-5.2,1.6-7.8,4.8-7.8
		c3.6,0,8.6,4.2,15,12.6c4.8,6.8,7.2,14.2,7.2,22.2c0,11.2-4.2,21-12.6,29.4c-7.2,6.8-16.2,10.2-27,10.2c-8,0-15.4-1.8-22.2-5.4
		l-1.2,1.2c-6.8,4.4-13.6,6.6-20.4,6.6c-10.4,0-19.2-3.6-26.4-10.8c-3.6,3.6-7.5,6.4-11.7,8.4c-4.2,2-9.9,3.4-17.1,4.2H502.6z
		 M568.3,299.5c2.2-3.2,3.3-6.4,3.3-9.6c0-4.8-1.7-8.5-5.1-11.1c-3.4-2.6-6.9-3.9-10.5-3.9c-4.4,0-7.9,1.6-10.5,4.8
		c-2.6,3.2-3.9,6.4-3.9,9.6c0,5.6,1.7,9.6,5.1,12c3.4,2.4,6.7,3.6,9.9,3.6h1.8C562.8,304.5,566.1,302.7,568.3,299.5z M583.9,270.7
		c2.2-3.2,3.3-6.4,3.3-9.6c0-4.8-1.7-8.5-5.1-11.1c-3.4-2.6-6.9-3.9-10.5-3.9c-4.8,0-8.5,1.7-11.1,5.1c-2.6,3.4-3.9,6.9-3.9,10.5
		c0,4.4,1.6,7.9,4.8,10.5c3.2,2.6,6.4,3.9,9.6,3.9h3C578.4,275.7,581.7,273.9,583.9,270.7z M598,301c2.4-3,3.6-6.3,3.6-9.9
		c0-4.8-1.7-8.5-5.1-11.1c-3.4-2.6-6.9-3.9-10.5-3.9c-4.8,0-8.5,1.7-11.1,5.1c-2.6,3.4-3.9,6.9-3.9,10.5c0,4.8,1.7,8.5,5.1,11.1
		c3.4,2.6,6.9,3.9,10.5,3.9h1.8C592.4,305.9,595.6,304,598,301z"/>
	<path d="M644.8,453.1c0.8-2,4-4.4,9.6-7.2c24-11.6,41-31.2,51-58.8l-15.6-0.6c-22.8-3.2-34.2-16.6-34.2-40.2v-2.4
		c1.6-18,10.6-30.6,27-37.8c4.4-1.6,8.6-2.4,12.6-2.4c6.4,0,12.6,1.8,18.6,5.4c10.8,7.6,16.8,15.8,18,24.6
		c1.2,8.8,1.8,15.2,1.8,19.2c0,26.8-11.8,52-35.4,75.6c-16.8,16.8-32.6,25.2-47.4,25.2L644.8,453.1z M709,372.7
		c0.8-4,1.2-7.8,1.2-11.4c0-6-0.8-11.8-2.4-17.4c-2.4-8.8-6-13.2-10.8-13.2c-4.8,0-8.9,2.2-12.3,6.6c-3.4,4.4-5.1,9-5.1,13.8
		c0,8,4.8,14,14.4,18l15,4.2V372.7z"/>
	<path d="M698.8,458.5l2.4-1.8c14.8-11.2,26.4-21.8,34.8-31.8c11.2-12.8,18.8-30.4,22.8-52.8c6-30,11.8-46,17.4-48
		c2.4,0,4.8,5.6,7.2,16.8c1.6,7.6,2.4,15,2.4,22.2l-0.6,9.6c2.4,1.6,5.2,2.4,8.4,2.4v13.2c-4,0-7.6-0.6-10.8-1.8
		c0,1.6-0.4,3.2-1.2,4.8c-3.2,9.6-10.3,20.4-21.3,32.4c-11,12-21.4,21.1-31.2,27.3c-9.8,6.2-17.3,9.3-22.5,9.3
		C703.8,460.3,701.2,459.7,698.8,458.5z"/>
	<path d="M793,388.3c-2-2-3-4.2-3-6.6c0-2.8,1-5,3-6.6h34.8c6.4,0,12.8-0.6,19.2-1.8c6.4-1.2,10.6-4.8,12.6-10.8l1.2-4.2h-1.2
		c-12.8,4-24.6,6-35.4,6c-3.6,0-7-0.4-10.2-1.2c-9.6-5.6-14.4-13.8-14.4-24.6c0-12.4,4.6-23.6,13.8-33.6c9.2-10,20.6-15,34.2-15
		c6.4,0,12.8,2.2,19.2,6.6c8.8,7.2,13.9,14.7,15.3,22.5c1.4,7.8,2.1,14.3,2.1,19.5c0,26.8-6.6,42-19.8,45.6
		c-9.6,2.8-20.4,4.2-32.4,4.2H793z M842.2,272.5c8-3.2,12-9,12-17.4c0-2-0.2-3.8-0.6-5.4c-3.2-8-9-12-17.4-12l-5.4,0.6
		c-8,3.2-12,9-12,17.4l0.6,5.4c3.2,8,9,12,17.4,12C838.8,273.1,840.6,272.9,842.2,272.5z M861.4,343.9c-0.4-3.6-0.8-7.4-1.2-11.4
		c-0.4-4-1.6-7.6-3.6-10.8c-2-3.2-4.2-4.9-6.6-5.1c-2.4-0.2-4-0.3-4.8-0.3c-4.4,0-8.8,2.7-13.2,8.1c-4.4,5.4-6.6,10.7-6.6,15.9
		c0,2,0.6,3.2,1.8,3.6c1.2,0.4,3.2,0.6,6,0.6l15-0.6l13.2,0.6V343.9z"/>
</g>
<g>
	<path d="M133.7,351c-3.9-9.4-5-20.1-3.3-32c1-7.1,3.4-18.1,7.2-32.9c8.3-35.6,14.1-58.1,17.3-67.5c3.2-9.4,5.6-14.6,7.4-15.6
		c3.4,4.5,3.4,21.5-0.1,50.9l-7.3,50.5c-2.4,16.6-1.7,30.3,2,40.9c2.3,6.8,6.5,11,12.7,12.7l-1.9,13.1
		C149,367.2,137.6,360.5,133.7,351z"/>
	<path d="M205.1,369.2c-7.2,2.2-13.4,3.3-18.7,3.4c-5.3,0.1-11.7-0.5-19.2-1.5c0-2.8,0.3-6,0.8-9.6l1.1-3.5l3.6,0.5
		c2,0.3,7.2,0.4,15.7,0.4c2.8,0,5.3-0.2,7.4-0.8c-9.1-15.5-12.6-30.7-10.4-45.7c1-7.1,3.2-14.1,6.6-20.9
		c9.4-17.6,24.9-28.1,46.4-31.5c4.5-0.6,8.6-0.6,12.1-0.1c12.7,1.8,20.8,8.7,24.3,20.5l0.9,2c23.4,8.6,38.2,24.9,44.5,48.8
		c0.2,4.5,0,8.5-0.5,12c-1.9,13.1-8,23.3-18.4,30.7c-14,10.1-26.4,15-37.3,14.6c-10.9-0.4-17.7-0.7-20.4-1.1
		C229,385.3,216.1,379.2,205.1,369.2z M223.7,345.2c7.4-6.2,14.1-13.7,20.2-22.6c6.1-8.8,10.2-17.7,12.3-26.7
		c1.2-8.3,0.5-12.9-2-13.6c-2.5-0.8-4.4-1.2-5.6-1.4c-4-0.6-8.5,0-13.6,1.7c-13.8,5.7-21.3,12.1-22.8,19.2c-1.4,7.1-2.2,11-2.3,11.8
		c-1.8,12.3,1.8,23.7,10.8,34.3L223.7,345.2z M278.1,358.5c13.1-6.6,20.2-13.9,21.3-21.8c0.5-3.2,0.1-6.2-1.1-9.2
		c-4-11.9-11.5-22.7-22.6-32.4l-1.4,5.3c-8.2,23.1-22.3,41.4-42.5,55.1l-0.7,0.5c6,3.3,12.2,5.4,18.5,6.3
		C258.8,363.6,268.3,362.3,278.1,358.5z"/>
</g>
<g>
	<g>
		<path d="M529.6,497.5c7.6,37.9,42,63.1,77.1,74c45.5,14.1,93.9,4,140.4,2.9c5.4-0.1,10.8-0.2,16.2,0.1c1,0.1,2,0.1,2.9,0.2
			c0.5,0,1,0.1,1.5,0.1c0,0,2.5,0.3,1,0.1c-1.1-0.2,1.8,0.3,2.1,0.4c1.1,0.2,2.2,0.4,3.3,0.7c1.9,0.4,3.8,1,5.7,1.6
			c0.9,0.3,1.8,0.7,2.7,1c-2-0.8,1.1,0.6,1.7,0.9c0.8,0.4,1.6,0.9,2.4,1.4c0.6,0.4,2.5,1.8,0.9,0.5c0.7,0.6,1.4,1.1,2,1.7
			c0.5,0.5,2.4,3,1.2,1.1c0.5,0.7,1,1.4,1.4,2.2c0.4,0.8,0.9,2.8,0.5,0.8c0.2,0.9,0.6,1.7,0.8,2.6c0.1,0.4,0.2,0.9,0.3,1.4
			c-0.2-1.8-0.1,1-0.1,1.1c0,0.6,0,1.2-0.1,1.7c0-0.4,0.3-1.5-0.1,0.2c-0.3,1.1-0.6,2.2-1,3.3c0.5-1.4-0.8,1.5-1,1.8
			c-0.3,0.5-0.6,1-0.9,1.5c-0.2,0.2-1.6,2.2-0.7,1.1c-3.4,4.2-5.9,5.9-11,8.4c-0.6,0.3-1.2,0.6-1.8,0.8c-1.5,0.6,1-0.4-0.5,0.2
			c-1.4,0.5-2.7,1-4.1,1.5c-2.6,0.9-5.3,1.6-8,2.3c-47,11.8-95.3,14.7-144,15.1c-48.5,0.4-97-2.1-145.5-2.2
			c-47.1,0-94.5,2.3-140.9,11.2c-22.5,4.4-44.7,10.4-66.1,18.5c-10.1,3.8-19.9,7.8-28.4,14.6c-7.9,6.2-13.8,15.9-13.1,26.3
			c0.8,11.5,7.9,21.2,17.5,27.1c10.5,6.4,23.2,7.4,35.2,7.7c25.4,0.7,50.8,1.3,76.2,1.9c25.5,0.6,51,1.3,76.5,1.9
			c12.3,0.3,24.5,0.5,36.8,1.1c12.2,0.6,22.6,1.6,34.3,4.6c2.7,0.7,5.4,1.5,8.1,2.4c1.1,0.4,2.1,0.7,3.2,1.1
			c0.5,0.2,1.1,0.4,1.6,0.6c2.6,1-1.5-0.7,1,0.4c4.4,2,8.7,4.3,12.8,7c0.9,0.6,1.9,1.3,2.8,1.9c0.5,0.3,0.9,0.7,1.4,1
			c-0.3-0.2-1.2-0.9,0.2,0.2c1.8,1.5,3.6,3.1,5.3,4.8c1.7,1.7,3.3,3.5,4.8,5.3c-1-1.3,0.9,1.3,1.1,1.5c0.7,1,1.4,2.1,2,3.2
			c1.2,1.9,2.2,3.9,3.1,6c0.6,1.5-0.7-2,0.2,0.6c0.2,0.5,0.4,1,0.5,1.5c0.4,1.1,0.7,2.2,1,3.3c0.2,1,0.4,2,0.6,3
			c0.3,1.3-0.1-1.5,0-0.1c0,0.5,0.1,1,0.1,1.5c0.2,2.2,0.2,4.3,0,6.5c0,0.5-0.1,1-0.2,1.5c0.3-2,0-0.3-0.1,0.2
			c-0.2,1-0.4,1.9-0.7,2.9c-0.1,0.4-1,3-0.6,2.1c0.4-1.1-0.2,0.3-0.3,0.6c-0.3,0.5-0.5,1.1-0.8,1.6c-0.5,0.8-1,1.6-1.6,2.4
			c1.1-1.6-0.5,0.5-0.9,0.9c-0.3,0.3-0.7,0.7-1,1c-1.5,1.6,1-0.4-0.2,0.2c-1.1,0.6-2,1.3-3.1,1.8c1.3-0.6,0,0-0.3,0.1
			c-0.6,0.2-1.1,0.3-1.7,0.5c-1.7,0.4-0.6,0.1-0.2,0.1c-0.6,0-1.1,0-1.7,0.1c-1.7,0-0.6,0-0.1,0.1c-0.6-0.1-1.1-0.3-1.6-0.4
			c1.3,0.4,0.2,0.1-0.2-0.1c-1.5-0.7-0.5-0.3-0.1,0.1c-0.4-0.3-0.7-0.7-1-1c1.3,1.4,0.1,0.3,0-0.3c-0.3-1.2,0.2,1.4,0,0.2
			c0-0.4-0.2-1-0.4-1.4c0-0.1,0-0.2-0.1-0.4c0.1,1.1,0.2,1.3,0.2,0.6c-0.3-0.4,0.5-1.7,0-0.5c-0.7,1.5,0.6-1.2,0,0.3
			c-0.6,1.4,1.3-1.4-0.4,0.5c-5-1.3-10-2.6-15-4c3.4,15.4,17.4,26.8,32.9,28c15.9,1.2,30.3-9.7,35.9-24c1.7-4.4-1.9-10.1-6.3-11.1
			c-5.2-1.2-9.2,1.6-11.1,6.3c0.5-1.2,0.1-0.2-0.2,0.4c-0.3,0.6-0.6,1.2-1,1.8c-0.3,0.5-0.6,0.9-0.9,1.3c-1.4,2.1,0.6-0.7-0.3,0.4
			c-0.8,0.9-1.7,1.7-2.5,2.6c-1.8,1.7,0.8-0.5-0.4,0.4c-0.5,0.4-1.1,0.8-1.7,1.1c-1,0.6-2.1,1.2-3.2,1.7c-0.9,0.4,1.1-0.3-0.5,0.1
			c-0.6,0.2-1.3,0.4-1.9,0.6c-0.6,0.2-1.3,0.3-2,0.4c0.8-0.2,0.9-0.1,0,0c-1.3,0.1-2.7,0.1-4,0c-0.9,0-0.8-0.2,0,0
			c-0.7-0.2-1.3-0.3-2-0.4c-0.7-0.2-3.5-1.2-2-0.6c-1.2-0.6-2.4-1.2-3.5-1.9c-0.5-0.3-0.9-0.6-1.3-0.9c1.3,0.9-0.1-0.1-0.4-0.4
			c-1-0.9-1.9-1.9-2.8-2.9c-0.9-1.1,1.1,1.7-0.3-0.4c-0.3-0.4-0.6-0.9-0.9-1.3c-0.3-0.6-0.7-1.2-1-1.8c-0.2-0.3-0.8-2-0.2-0.4
			c-0.5-1.3-0.8-2.5-1.1-3.9c-1.4-6.3-10.7-9.1-15-4c-4.3,5-5.9,11.2-4.2,17.7c1.5,5.7,5.6,10.8,11.1,13.2
			c11.1,4.9,24.2,0.8,31.8-8.3c13.8-16.4,10.6-40.8-0.8-57.5c-12.3-18-31.9-29.4-52.8-34.9c-24.4-6.4-50.2-5.8-75.3-6.4
			c-26.2-0.7-52.5-1.3-78.7-2c-25.9-0.6-51.8-1-77.6-2c-6.1-0.2-10.3-0.5-15.7-2c-2.7-0.7-4.4-1.3-6.4-2.4c-1-0.5-1.9-1.1-2.8-1.7
			c-0.2-0.1-1.6-1.2-0.8-0.5c0.6,0.5-1.1-1-1.3-1.2c-0.8-0.8-1.6-1.6-2.3-2.4c-0.9-1.1,0.7,1-0.1-0.1c-0.4-0.6-0.8-1.1-1.1-1.7
			c-0.3-0.5-1.3-3.1-0.8-1.5c-0.2-0.5-0.3-1-0.5-1.5c-0.1-0.4-0.5-2.8-0.3-0.8c-0.1-1.1-0.1-2.2-0.1-3.2c0-0.5,0.4-1.5,0,0.1
			c0.1-0.5,0.2-1,0.3-1.5c0.2-0.7,1.2-3,0.3-1.3c0.5-1.1,1.2-2.1,1.8-3.2c0.2-0.3,1-1.3-0.1,0c0.3-0.4,0.6-0.8,1-1.1
			c0.7-0.8,1.4-1.5,2.1-2.2c0.4-0.3,0.8-0.7,1.2-1c1.8-1.7-0.9,0.6,0.3-0.3c1-0.7,1.9-1.4,2.9-2c1.9-1.2,3.9-2.3,6-3.4
			c1.1-0.5,2.2-1.1,3.3-1.6c0.5-0.2,1-0.4,1.5-0.6c-1.3,0.6-0.2,0.1,0.5-0.2c11-4.4,22.1-8.3,33.5-11.7
			c45.8-13.5,91.5-18.3,139.1-19.8c49.1-1.5,98.2,0.8,147.4,1.5c50.7,0.7,101.6-0.4,151.7-9c11.9-2,23.8-4.3,35.4-7.5
			c11.4-3.1,23.1-8.1,30.6-17.6c7.5-9.4,11-21.8,6.1-33.3c-3.6-8.5-10.7-14.7-19.1-18.4c-20.1-8.7-43.2-6.4-64.5-5
			c-25.2,1.6-50.4,4.4-75.6,3.1c-3.1-0.2-6.2-0.4-9.3-0.6c-1.5-0.1-2.9-0.3-4.4-0.4c-0.7-0.1-1.5-0.2-2.2-0.3c-0.7-0.1-0.7-0.1,0,0
			c-0.4-0.1-0.8-0.1-1.2-0.2c-4.6-0.7-9.2-1.6-13.7-2.7c-4.4-1.1-8.8-2.4-13.2-4c-2-0.7-4.1-1.5-6.1-2.3c-1.6-0.7-0.4-0.2-0.1,0
			c-0.6-0.3-1.2-0.5-1.9-0.8c-1.1-0.5-2.2-1-3.3-1.5c-4.2-2-8.3-4.3-12.3-6.8c-1.9-1.2-3.8-2.5-5.6-3.8c-0.9-0.6-1.7-1.2-2.5-1.9
			c0.3,0.2,1.3,1,0,0c-0.6-0.5-1.2-1-1.8-1.5c-3.4-2.8-6.6-5.9-9.5-9.1c-1.4-1.5-2.7-3.1-3.9-4.7c1.2,1.6-0.9-1.2-1.1-1.6
			c-0.7-0.9-1.3-1.9-1.9-2.9c-1.2-1.8-2.2-3.7-3.2-5.6c-0.5-1-1-2-1.5-3.1c-0.2-0.5-0.4-0.9-0.6-1.4c0.1,0.3,0.6,1.6,0,0
			c-1.6-4.1-2.9-8.3-3.7-12.7c-0.9-4.6-6.7-7.7-11.1-6.3C531,488,528.6,492.5,529.6,497.5L529.6,497.5z"/>
	</g>
</g>
</svg>
