<?xml version="1.0" encoding="utf-8"?>
<!-- Generator: Adobe Illustrator 25.2.3, SVG Export Plug-In . SVG Version: 6.00 Build 0)  -->
<svg version="1.1" id="Layer_1" xmlns="http://www.w3.org/2000/svg" xmlns:xlink="http://www.w3.org/1999/xlink" x="0px" y="0px"
	 viewBox="0 0 960 560" style="enable-background:new 0 0 960 560;" xml:space="preserve">
<style type="text/css">
	.st0{fill:#0063CF;}
</style>
<g>
	<path class="st0" d="M728.2,389.8c0-2.3,0.9-4.8,2.7-7.5c1.8-2.7,3.8-5.4,6.1-8.2c2.3-2.8,4.6-5.5,7-8.1c2.4-2.6,4.2-4.9,5.4-7
		c-0.5-4.8-0.9-9.7-1.3-14.8s-0.5-10-0.5-14.8c0-22,0.4-43.4,1.3-64.3c0.8-20.9,3.1-42.4,6.7-64.3c-1.2-0.2-3.2-0.6-6.1-1.2
		c-2.9-0.6-5.9-1.4-9-2.3s-5.9-2-8.3-3.1c-2.4-1.1-3.8-2.2-4.3-3.3l4.7-4.4h6.1c7.7,0.2,14.5-0.5,20.4-2.2
		c5.9-1.7,11.3-3.7,16.4-6.2c5-2.5,9.8-5.2,14.4-8.2c4.6-3,9.4-5.8,14.6-8.4c5.2-2.6,10.8-4.8,16.9-6.5c6.1-1.8,13.3-2.6,21.4-2.6
		c11,0,21,2,29.9,5.9c8.9,3.9,16.7,9.2,23.6,15.7s12.8,14,17.8,22.5c5,8.5,9.2,17.3,12.4,26.4c3.2,9.1,5.6,18.2,7.2,27.2
		c1.6,9,2.3,17.4,2.3,25c0,20.9-2.9,37.7-8.8,50.2c-5.9,12.5-14.4,22.2-25.6,28.9c-11.2,6.7-24.8,11.2-41.1,13.4
		c-16.2,2.2-34.6,3.3-55.3,3.3c-4.1,0-9.2,0.2-15.3,0.6c-6.1,0.4-12.4,1.5-18.7,3.3c-6.4,1.8-12.5,4.5-18.6,8.2
		c-6,3.7-10.9,8.9-14.8,15.5l-5.4,0.6L728.2,389.8z M797.4,209.8c0,5,0.1,11.2,0.2,18.8c0.1,7.6,0.4,15.8,0.9,24.7
		c0.5,8.9,1.3,18,2.3,27.3c1.1,9.3,2.6,18.2,4.7,26.6c2,8.4,4.7,15.8,7.9,22.4c3.2,6.5,7.3,11.4,12.1,14.8c1.2-0.2,2.3-0.3,3.2-0.2
		c1,0.1,2,0.2,3.2,0.2c8.9,0,16.3-2,22.3-6.1c6-4,10.9-9.1,14.6-15.1s6.4-12.5,8.1-19.6c1.7-7,2.5-13.7,2.5-19.9c0-0.4,0-1.3,0-2.6
		s-0.3-2.2-0.8-2.6c-0.2-5.4-1.9-12.4-4.9-21.1c-3-8.7-7.1-17.2-12.2-25.5s-11-15.4-17.6-21.4c-6.6-6-13.6-9-21.1-9
		c-4.3,0-8.8-0.2-13.3-0.5c-4.6-0.3-8.6,0.7-12.2,2.9V209.8z"/>
</g>
<g>
	<path d="M204.3,286.4h20l1.1,0.5v19.9l-1.1,0.5H32.7c-3.4,0-5.7-1.2-7-3.5c-0.5-0.8-0.7-1.8-0.7-3v-43.4c0.5-4.1,2.7-6.2,6.6-6.3
		h79.9l0.5,0.5v20.2l-0.5,0.5h-33c-2,0-3,1.1-3,3.3l-0.2,2.1v3c0,3.4,0.9,5.2,2.6,5.2l0.9,0.2h112.3c2.1,0,3.4-1.2,3.8-3.5v-30.9
		l0.5-0.5h8.7l0.5,0.5V286.4z M131.8,251.4h12c3.4,0,5.2,1.7,5.2,5.2v8.9c0,4.5-1.6,6.8-4.7,6.8h-12.9c-2.5,0-3.8-2.2-3.8-6.6v-8.9
		C127.6,253.2,129,251.4,131.8,251.4z M158.8,251.4h12c3.4,0,5.2,1.7,5.2,5.2v8.9c0,4.5-1.6,6.8-4.7,6.8h-12.9
		c-2.5,0-3.8-2.2-3.8-6.6v-8.9C154.6,253.2,156,251.4,158.8,251.4z"/>
	<path d="M263.5,199l0.2-0.2h37.5c0.3,0,0.5,0.2,0.5,0.7c0,22.3-10.4,39.5-31.2,51.6h48c3.4,0,5.8,1.4,7.3,4.2
		c0.5,1,0.7,2.1,0.7,3.3v48.3l-0.5,0.5H212.2l-0.5-0.5v-20.2l0.5-0.5h64.2v-5.9c0-5.3-1.4-8-4.2-8l-1.4-0.2l-53,0.5l-0.2-0.2v-13.8
		c0.4-5,2.5-7.5,6.1-7.5h8.2c23.4-9.5,35.2-21.8,35.2-36.8C267,209.7,265.8,204.6,263.5,199z"/>
	<path d="M391.2,250.8h72.7c3.7,0,6.2,1.6,7.5,4.7l0.5,2.8v48.3l-0.5,0.5H384v34.3l-0.5,0.5h-20.2l-0.5-0.5V297
		c0-4.8,2.8-8.3,8.4-10.3c2.2-0.6,5.1-0.9,8.7-0.9h4.9v-25.8C384.9,253.8,387,250.8,391.2,250.8z M394.5,277.7v8h27.2v-6.3
		c0-4.7-1.1-7-3.3-7c0-0.3-0.9-0.4-2.8-0.5h-15.9C396.2,271.9,394.5,273.8,394.5,277.7z"/>
	<path d="M505.1,251.6h34l0.5,0.5v81.1c0,5.8-2.3,8.7-6.8,8.7H484l-0.5-0.5v-8.7l0.5-0.5h17.8c1.9,0,2.8-1.4,2.8-4.2v-75.9
		L505.1,251.6z"/>
	<path d="M559.3,251.1h60c2.7,0,4.6,1.1,5.6,3.3c0.5,0.7,0.7,1.8,0.7,3v78c-0.5,4.2-2.4,6.3-5.6,6.3h-68.2l-0.5-0.5v-20.2l0.5-0.5
		h58.4c3.9,0,5.9-1.3,5.9-3.8v-9.6h-56.5c-3.8,0-6.3-1.6-7.5-4.9l-0.2-2.3v-42.2c0-3.2,1.6-5.4,4.9-6.6L559.3,251.1z M601.9,269
		v12.7c0,3,0.9,4.5,2.6,4.5h8.4c2,0,3-1,3-3v-15.5c0-1.4-0.9-2.2-2.8-2.3h-8.7C602.8,265.2,601.9,266.5,601.9,269z"/>
	<path d="M637.8,251.3h64.5c4.4,0.4,6.6,2.5,6.6,6.1v43.4c-0.5,4.4-2.6,6.6-6.3,6.6h-64.7l-0.5-0.5v-20.2l0.5-0.5h17.1
		c2.3-0.2,3.5-1.1,3.5-2.8v-8.4c-0.3-1.7-1.2-2.6-2.6-2.6h-18l-0.5-0.5v-20.2L637.8,251.3z"/>
</g>
<g>
	<g>
		<path class="st0" d="M28.9,319.7c2.7-0.4,5.9-0.7,9.4-0.7c6.4,0,10.9,1.5,13.9,4.3c3.1,2.8,4.9,6.8,4.9,12.3
			c0,5.6-1.8,10.2-4.9,13.4c-3.2,3.2-8.6,5-15.2,5c-3.2,0-5.8-0.1-8.1-0.4V319.7z M33.4,350.1c1.1,0.2,2.8,0.2,4.5,0.2
			c9.5,0,14.6-5.3,14.6-14.6c0.1-8.1-4.5-13.2-13.9-13.2c-2.3,0-4,0.2-5.2,0.5V350.1z"/>
		<path class="st0" d="M85.1,341.1c0,9.1-6.3,13.1-12.3,13.1c-6.7,0-11.9-4.9-11.9-12.7c0-8.3,5.4-13.1,12.2-13.1
			C80.3,328.4,85.1,333.6,85.1,341.1z M65.5,341.4c0,5.4,3.1,9.5,7.5,9.5c4.3,0,7.5-4,7.5-9.6c0-4.2-2.1-9.4-7.4-9.4
			C67.8,331.8,65.5,336.7,65.5,341.4z"/>
		<path class="st0" d="M90.7,336.7c0-2.9-0.1-5.4-0.2-7.7h3.9l0.2,4.8h0.2c1.2-3.3,3.9-5.4,6.9-5.4c0.5,0,0.8,0,1.2,0.1v4.2
			c-0.5-0.1-0.9-0.1-1.5-0.1c-3.2,0-5.4,2.4-6,5.7c-0.1,0.6-0.2,1.4-0.2,2.1v13.2h-4.5V336.7z"/>
		<path class="st0" d="M107.4,335.6c0-2.6-0.1-4.6-0.2-6.7h3.9l0.2,4h0.1c1.4-2.3,3.7-4.5,7.8-4.5c3.3,0,5.9,2,7,4.9h0.1
			c0.8-1.4,1.8-2.5,2.8-3.2c1.5-1.1,3.1-1.7,5.4-1.7c3.3,0,8.1,2.1,8.1,10.7v14.5h-4.4v-13.9c0-4.8-1.8-7.6-5.4-7.6
			c-2.6,0-4.5,1.9-5.3,4c-0.2,0.6-0.4,1.5-0.4,2.2v15.3h-4.4v-14.8c0-3.9-1.7-6.8-5.1-6.8c-2.8,0-4.8,2.2-5.6,4.5
			c-0.2,0.7-0.3,1.4-0.3,2.2v14.9h-4.4V335.6z"/>
		<path class="st0" d="M154.4,340.3h0.1c0.6-0.9,1.4-2,2.2-2.8l7.3-8.5h5.4l-9.5,10.1l10.9,14.5h-5.5l-8.5-11.9l-2.3,2.6v9.3h-4.5
			v-36.2h4.5V340.3z"/>
		<path class="st0" d="M176.4,342.1c0.1,6.1,3.9,8.6,8.4,8.6c3.2,0,5.2-0.6,6.8-1.3l0.8,3.2c-1.6,0.7-4.3,1.6-8.2,1.6
			c-7.6,0-12.1-5-12.1-12.4c0-7.5,4.4-13.3,11.6-13.3c8,0,10.1,7.1,10.1,11.6c0,0.9-0.1,1.6-0.2,2.1H176.4z M189.5,338.9
			c0-2.8-1.2-7.3-6.2-7.3c-4.6,0-6.5,4.1-6.9,7.3H189.5z"/>
		<path class="st0" d="M204.8,321.9v7.1h6.4v3.4h-6.4v13.3c0,3.1,0.9,4.8,3.4,4.8c1.2,0,2-0.1,2.6-0.3l0.2,3.4
			c-0.9,0.3-2.3,0.6-4,0.6c-2.1,0-3.8-0.7-4.8-1.9c-1.2-1.4-1.7-3.5-1.7-6.4v-13.5h-3.8V329h3.8V323L204.8,321.9z"/>
	</g>
</g>
</svg>
