<?xml version="1.0" encoding="utf-8"?>
<!-- Generator: Adobe Illustrator 25.2.3, SVG Export Plug-In . SVG Version: 6.00 Build 0)  -->
<svg version="1.1" id="Layer_1" xmlns="http://www.w3.org/2000/svg" xmlns:xlink="http://www.w3.org/1999/xlink" x="0px" y="0px"
	 viewBox="0 0 1000 1000" style="enable-background:new 0 0 1000 1000;" xml:space="preserve">
<style type="text/css">
	.st0{fill:#0063CF;}
</style>
<g>
	<path class="st0" d="M81.9,951.8c0-9,3.6-18.9,10.7-29.6c7.2-10.7,15.2-21.6,24.3-32.7c9.1-11.1,18.4-21.8,27.9-32.1
		s16.7-19.5,21.5-27.8c-1.9-18.9-3.6-38.4-5-58.6s-2.1-39.7-2.1-58.6c0-87.1,1.7-172.2,5-255.3c3.3-83,12.2-168.1,26.5-255.3
		c-4.8-0.8-12.9-2.5-24.3-4.9s-23.4-5.5-35.8-9.2s-23.3-7.8-32.9-12.3c-9.5-4.5-15.3-8.8-17.2-13l18.6-17.3h24.3
		c30.5,0.8,57.4-2,80.8-8.6s45-14.8,65-24.7c20-9.9,39.1-20.8,57.2-32.7c18.1-11.9,37.4-23,57.9-33.3S427.1,27,451.4,20
		c24.3-7,52.6-10.5,85-10.5c43.8,0,83.4,7.8,118.6,23.4s66.5,36.4,93.6,62.3s50.7,55.7,70.7,89.4c20,33.7,36.4,68.7,49.3,104.8
		c12.9,36.2,22.4,72.2,28.6,107.9s9.3,68.9,9.3,99.3c0,83-11.7,149.4-35,199.2s-57.2,88-101.5,114.7c-44.3,26.7-98.6,44.4-162.9,53
		s-137.4,13-219.4,13c-16.2,0-36.5,0.8-60.7,2.5c-24.3,1.6-49.1,6-74.3,13c-25.2,7-49.8,17.9-73.6,32.7
		c-23.8,14.8-43.4,35.4-58.6,61.7l-21.5,2.5L81.9,951.8z M356.6,237.8c0,19.7,0.2,44.6,0.7,74.6c0.5,30,1.7,62.7,3.6,98
		c1.9,35.3,5,71.5,9.3,108.5c4.3,37,10.5,72.1,18.6,105.4c8.1,33.3,18.6,62.9,31.5,88.8c12.9,25.9,28.8,45.4,47.9,58.5
		c4.8-0.8,9-1,12.9-0.6s8.1,0.6,12.9,0.6c35.3,0,64.8-8,88.6-24s43.1-36,57.9-59.8s25.5-49.7,32.2-77.7s10-54.2,10-78.9
		c0-1.6,0-5.1,0-10.5s-1-8.8-3-10.5c-1-21.4-7.4-49.3-19.3-83.8s-28.1-68.2-48.6-101.1s-43.8-61.2-70-85s-54.1-35.8-83.6-35.8
		c-17.2,0-34.8-0.6-52.9-1.8c-18.1-1.2-34.3,2.7-48.6,11.7V237.8z"/>
</g>
</svg>
